<svg width="1200" height="675" viewBox="0 0 1200 675" fill="none" xmlns="http://www.w3.org/2000/svg">
  <rect width="1200" height="675" fill="#0B1020"/>
  <rect x="36" y="28" width="1128" height="619" rx="16" fill="#121A2E" stroke="#2A3B63"/>
  <rect x="36" y="28" width="1128" height="68" rx="16" fill="#11182A"/>
  <circle cx="72" cy="62" r="7" fill="#FF5F57"/>
  <circle cx="94" cy="62" r="7" fill="#FEBB2E"/>
  <circle cx="116" cy="62" r="7" fill="#28C840"/>
  <text x="150" y="67" fill="#E5ECFF" font-family="Inter, Arial" font-size="22" font-weight="700">StockPredict • Live Portfolio Dashboard</text>

  <rect x="72" y="126" width="320" height="118" rx="12" fill="#192542"/>
  <text x="92" y="168" fill="#9FB3D9" font-family="Inter, Arial" font-size="16">Portfolio Value</text>
  <text x="92" y="206" fill="#F4F8FF" font-family="Inter, Arial" font-size="34" font-weight="700">$8,412.23</text>
  <text x="284" y="206" fill="#33D17A" font-family="Inter, Arial" font-size="16">+1.24%</text>

  <rect x="412" y="126" width="320" height="118" rx="12" fill="#192542"/>
  <text x="432" y="168" fill="#9FB3D9" font-family="Inter, Arial" font-size="16">Last Refresh (Market Date)</text>
  <text x="432" y="206" fill="#F4F8FF" font-family="Inter, Arial" font-size="30" font-weight="700">Friday, Apr 10</text>

  <rect x="752" y="126" width="376" height="118" rx="12" fill="#192542"/>
  <text x="772" y="168" fill="#9FB3D9" font-family="Inter, Arial" font-size="16">Data Source</text>
  <text x="772" y="206" fill="#F4F8FF" font-family="Inter, Arial" font-size="28" font-weight="700">Finnhub + Snapshot Cache</text>

  <rect x="72" y="272" width="760" height="333" rx="12" fill="#192542"/>
  <text x="96" y="306" fill="#EAF1FF" font-family="Inter, Arial" font-size="20" font-weight="600">Price Trend • AAPL</text>
  <polyline points="102,540 180,500 260,520 340,460 420,470 500,420 580,390 660,360 740,330 810,300" fill="none" stroke="#41E28D" stroke-width="4"/>
  <polyline points="102,560 180,540 260,548 340,520 420,522 500,500 580,482 660,460 740,440 810,418" fill="none" stroke="#33B9FF" stroke-width="3" opacity="0.75"/>

  <rect x="856" y="272" width="272" height="160" rx="12" fill="#192542"/>
  <text x="878" y="305" fill="#EAF1FF" font-family="Inter, Arial" font-size="18" font-weight="600">AI Prediction</text>
  <circle cx="990" cy="358" r="46" fill="#112038" stroke="#2A3B63"/>
  <text x="968" y="365" fill="#41E28D" font-family="Inter, Arial" font-size="28" font-weight="700">78</text>
  <text x="945" y="393" fill="#9FB3D9" font-family="Inter, Arial" font-size="14">Strong Buy</text>

  <rect x="856" y="445" width="272" height="160" rx="12" fill="#192542"/>
  <text x="878" y="478" fill="#EAF1FF" font-family="Inter, Arial" font-size="18" font-weight="600">Watchlist Search</text>
  <rect x="878" y="495" width="228" height="40" rx="8" fill="#0E1629" stroke="#2A3B63"/>
  <text x="890" y="520" fill="#7D93BD" font-family="Inter, Arial" font-size="14">Eli Lilly (LLY) • NYSE</text>
  <rect x="878" y="545" width="118" height="36" rx="8" fill="#2F66FF"/>
  <text x="908" y="568" fill="#F5F9FF" font-family="Inter, Arial" font-size="14" font-weight="600">Add Ticker</text>
</svg>
